<svg xmlns="http://www.w3.org/2000/svg" xmlns:xlink="http://www.w3.org/1999/xlink" width="500" zoomAndPan="magnify" viewBox="0 0 375 374.999991" height="500" preserveAspectRatio="xMidYMid meet" version="1.0"><defs><g/><clipPath id="670036f5e8"><path d="M 129.980469 96.417969 L 226.730469 96.417969 L 226.730469 193.167969 L 129.980469 193.167969 Z M 129.980469 96.417969 " clip-rule="nonzero"/></clipPath><clipPath id="a30c0f5654"><path d="M 148.582031 117 L 245 117 L 245 209.242188 L 148.582031 209.242188 Z M 148.582031 117 " clip-rule="nonzero"/></clipPath></defs><g clip-path="url(#670036f5e8)"><path fill="#ff7f00" d="M 223.808594 142.726562 L 180.328125 99.246094 C 178.5625 97.507812 176.144531 96.417969 173.488281 96.417969 L 139.648438 96.417969 C 134.308594 96.417969 129.980469 100.746094 129.980469 106.085938 L 129.980469 139.925781 C 129.980469 142.605469 131.070312 145.023438 132.832031 146.765625 L 176.339844 190.269531 C 178.078125 192.011719 180.496094 193.097656 183.15625 193.097656 C 185.8125 193.097656 188.253906 192.011719 189.996094 190.269531 L 223.832031 156.433594 C 225.574219 154.667969 226.660156 152.25 226.660156 149.59375 C 226.660156 146.910156 225.574219 144.492188 223.808594 142.726562 Z M 146.902344 120.589844 C 142.886719 120.589844 139.648438 117.351562 139.648438 113.335938 C 139.648438 109.324219 142.886719 106.085938 146.902344 106.085938 C 150.914062 106.085938 154.152344 109.324219 154.152344 113.335938 C 154.152344 117.351562 150.914062 120.589844 146.902344 120.589844 Z M 146.902344 120.589844 " fill-opacity="1" fill-rule="nonzero"/></g><g clip-path="url(#a30c0f5654)"><path fill="#231f20" d="M 151.507812 117.015625 C 151.65625 117.015625 151.808594 117.03125 151.953125 117.054688 C 151.957031 117.054688 151.960938 117.054688 151.964844 117.054688 L 166.679688 119.570312 C 167.617188 119.730469 168.402344 120.371094 168.746094 121.257812 C 168.746094 121.257812 168.746094 121.261719 168.746094 121.265625 L 175.578125 138.777344 L 242.230469 140.4375 C 242.996094 140.457031 243.714844 140.804688 244.214844 141.382812 C 244.714844 141.957031 244.953125 142.726562 244.859375 143.488281 L 241.179688 173.925781 C 241.027344 175.203125 239.972656 176.214844 238.691406 176.316406 L 191.171875 180.09375 L 181.757812 187.503906 C 181.746094 187.511719 181.734375 187.519531 181.722656 187.527344 C 181.710938 187.535156 181.699219 187.535156 181.691406 187.542969 C 181.679688 187.550781 181.667969 187.5625 181.65625 187.570312 C 179.9375 188.851562 179.511719 190.597656 179.753906 191.570312 C 179.894531 192.125 180.105469 192.53125 180.605469 192.84375 C 181.109375 193.15625 181.976562 193.382812 183.460938 193.296875 C 183.464844 193.296875 183.46875 193.296875 183.476562 193.296875 C 183.523438 193.296875 183.578125 193.296875 183.625 193.296875 C 183.632812 193.296875 183.640625 193.296875 183.648438 193.296875 L 240.320312 193.464844 L 240.332031 193.464844 C 241.820312 193.453125 243.074219 194.703125 243.066406 196.191406 C 243.0625 197.679688 241.804688 198.925781 240.3125 198.90625 L 240.304688 198.90625 L 236.164062 198.894531 C 237.703125 199.878906 238.734375 201.59375 238.734375 203.542969 C 238.734375 206.574219 236.25 209.058594 233.21875 209.058594 C 230.1875 209.058594 227.703125 206.574219 227.703125 203.542969 C 227.703125 201.582031 228.738281 199.851562 230.292969 198.871094 L 183.625 198.738281 C 185.304688 199.6875 186.453125 201.488281 186.453125 203.542969 C 186.453125 206.574219 183.96875 209.058594 180.9375 209.058594 C 177.90625 209.058594 175.421875 206.574219 175.421875 203.542969 C 175.421875 200.910156 177.292969 198.691406 179.769531 198.152344 C 177.425781 197.324219 175.628906 195.613281 174.511719 193 C 174.496094 192.96875 174.480469 192.9375 174.472656 192.902344 C 173.617188 189.484375 175.132812 185.769531 178.257812 183.351562 C 178.265625 183.34375 178.273438 183.335938 178.28125 183.328125 C 178.289062 183.320312 178.292969 183.308594 178.300781 183.300781 C 178.328125 183.269531 178.355469 183.238281 178.390625 183.210938 L 185.0625 177.976562 L 164.25 124.671875 L 151.046875 122.421875 C 151.042969 122.421875 151.039062 122.421875 151.039062 122.421875 C 149.652344 122.199219 148.636719 120.90625 148.757812 119.503906 C 148.875 118.097656 150.101562 116.996094 151.507812 117.015625 Z M 177.585938 142.976562 L 181.421875 152.816406 L 186.425781 152.816406 L 186.425781 143.199219 Z M 188.335938 143.25 L 188.335938 152.816406 L 197.570312 152.816406 L 197.570312 143.480469 Z M 199.480469 143.523438 L 199.480469 152.816406 L 208.71875 152.816406 L 208.71875 143.753906 Z M 210.628906 143.804688 L 210.628906 152.816406 L 219.863281 152.816406 L 219.863281 144.035156 Z M 221.773438 144.085938 L 221.773438 152.816406 L 231.007812 152.816406 L 231.007812 144.316406 Z M 232.917969 144.359375 L 232.917969 152.816406 L 239.691406 152.816406 L 240.691406 144.554688 Z M 239.460938 154.71875 L 232.917969 154.71875 L 232.917969 163.359375 L 238.417969 163.359375 Z M 231.007812 154.71875 L 221.773438 154.71875 L 221.773438 163.359375 L 231.007812 163.359375 Z M 219.863281 154.71875 L 210.628906 154.71875 L 210.628906 163.359375 L 219.863281 163.359375 Z M 208.71875 154.71875 L 199.480469 154.71875 L 199.480469 163.359375 L 208.71875 163.359375 Z M 197.570312 154.71875 L 188.335938 154.71875 L 188.335938 163.359375 L 197.570312 163.359375 Z M 186.425781 154.71875 L 182.160156 154.71875 L 185.53125 163.359375 L 186.425781 163.359375 Z M 238.183594 165.261719 L 232.917969 165.261719 L 232.917969 171.460938 L 237.480469 171.097656 Z M 231.007812 165.261719 L 221.773438 165.261719 L 221.773438 172.347656 L 231.007812 171.609375 Z M 219.863281 165.261719 L 210.625 165.261719 L 210.625 173.230469 L 219.863281 172.503906 Z M 208.714844 165.261719 L 199.480469 165.261719 L 199.480469 174.125 L 208.714844 173.386719 Z M 197.570312 165.261719 L 188.335938 165.261719 L 188.335938 170.519531 L 190.085938 175.007812 C 190.316406 174.898438 190.5625 174.832031 190.816406 174.8125 L 197.570312 174.273438 Z M 186.425781 165.261719 L 186.285156 165.261719 L 186.425781 165.648438 Z M 233.214844 200.304688 C 231.414062 200.304688 229.972656 201.742188 229.972656 203.542969 C 229.972656 205.347656 231.414062 206.777344 233.214844 206.777344 C 235.015625 206.777344 236.457031 205.347656 236.457031 203.542969 C 236.457031 201.742188 235.015625 200.304688 233.214844 200.304688 Z M 180.933594 200.304688 C 179.132812 200.304688 177.691406 201.742188 177.691406 203.542969 C 177.691406 205.347656 179.132812 206.777344 180.933594 206.777344 C 182.734375 206.777344 184.175781 205.347656 184.175781 203.542969 C 184.175781 201.742188 182.734375 200.304688 180.933594 200.304688 Z M 233.214844 201.839844 C 234.195312 201.839844 234.976562 202.621094 234.976562 203.601562 C 234.976562 204.582031 234.195312 205.355469 233.214844 205.355469 C 232.234375 205.355469 231.453125 204.582031 231.453125 203.601562 C 231.453125 202.621094 232.234375 201.839844 233.214844 201.839844 Z M 180.933594 201.839844 C 181.914062 201.839844 182.695312 202.621094 182.695312 203.601562 C 182.695312 204.582031 181.914062 205.355469 180.933594 205.355469 C 179.957031 205.355469 179.171875 204.582031 179.171875 203.601562 C 179.171875 202.621094 179.957031 201.839844 180.933594 201.839844 Z M 180.933594 201.839844 " fill-opacity="1" fill-rule="nonzero"/></g><g fill="#231f20" fill-opacity="1"><g transform="translate(61.990866, 250.487693)"><g><path d="M 18.625 -28.875 L 18.625 -23.09375 L 8.6875 -23.09375 L 8.6875 -17.359375 L 18.203125 -17.359375 L 18.203125 -11.578125 L 8.6875 -11.578125 L 8.6875 -5.78125 L 18.625 -5.78125 L 18.625 0 L 2.09375 0 L 2.09375 -28.875 Z M 18.625 -28.875 "/></g></g></g><g fill="#231f20" fill-opacity="1"><g transform="translate(82.286286, 250.487693)"><g><path d="M 2.09375 -12.8125 L 13.375 -12.8125 L 13.375 -7.453125 L 2.09375 -7.453125 Z M 2.09375 -12.8125 "/></g></g></g><g fill="#231f20" fill-opacity="1"><g transform="translate(97.752792, 250.487693)"><g><path d="M 17.46875 -5.953125 C 18.46875 -5.953125 19.441406 -6.101562 20.390625 -6.40625 C 21.335938 -6.707031 22.03125 -7 22.46875 -7.28125 L 23.140625 -7.734375 L 25.9375 -2.140625 C 25.84375 -2.066406 25.710938 -1.972656 25.546875 -1.859375 C 25.390625 -1.742188 25.007812 -1.523438 24.40625 -1.203125 C 23.8125 -0.890625 23.175781 -0.613281 22.5 -0.375 C 21.820312 -0.144531 20.9375 0.0625 19.84375 0.25 C 18.75 0.4375 17.617188 0.53125 16.453125 0.53125 C 13.765625 0.53125 11.21875 -0.128906 8.8125 -1.453125 C 6.414062 -2.773438 4.484375 -4.585938 3.015625 -6.890625 C 1.546875 -9.203125 0.8125 -11.703125 0.8125 -14.390625 C 0.8125 -16.421875 1.238281 -18.367188 2.09375 -20.234375 C 2.957031 -22.097656 4.109375 -23.691406 5.546875 -25.015625 C 6.984375 -26.347656 8.65625 -27.410156 10.5625 -28.203125 C 12.476562 -29.003906 14.441406 -29.40625 16.453125 -29.40625 C 18.316406 -29.40625 20.035156 -29.179688 21.609375 -28.734375 C 23.179688 -28.285156 24.296875 -27.84375 24.953125 -27.40625 L 25.9375 -26.734375 L 23.140625 -21.140625 C 22.972656 -21.273438 22.722656 -21.441406 22.390625 -21.640625 C 22.066406 -21.835938 21.414062 -22.097656 20.4375 -22.421875 C 19.457031 -22.753906 18.46875 -22.921875 17.46875 -22.921875 C 15.875 -22.921875 14.445312 -22.664062 13.1875 -22.15625 C 11.9375 -21.644531 10.941406 -20.96875 10.203125 -20.125 C 9.460938 -19.28125 8.898438 -18.375 8.515625 -17.40625 C 8.128906 -16.4375 7.9375 -15.453125 7.9375 -14.453125 C 7.9375 -12.265625 8.757812 -10.300781 10.40625 -8.5625 C 12.050781 -6.820312 14.40625 -5.953125 17.46875 -5.953125 Z M 17.46875 -5.953125 "/></g></g></g><g fill="#231f20" fill-opacity="1"><g transform="translate(124.101839, 250.487693)"><g><path d="M 0.8125 -14.453125 C 0.8125 -18.628906 2.234375 -22.164062 5.078125 -25.0625 C 7.921875 -27.957031 11.347656 -29.40625 15.359375 -29.40625 C 19.398438 -29.40625 22.832031 -27.960938 25.65625 -25.078125 C 28.476562 -22.191406 29.890625 -18.648438 29.890625 -14.453125 C 29.890625 -10.234375 28.5 -6.679688 25.71875 -3.796875 C 22.945312 -0.910156 19.492188 0.53125 15.359375 0.53125 C 11.140625 0.53125 7.660156 -0.894531 4.921875 -3.75 C 2.179688 -6.613281 0.8125 -10.179688 0.8125 -14.453125 Z M 7.90625 -14.453125 C 7.90625 -12.941406 8.140625 -11.5625 8.609375 -10.3125 C 9.078125 -9.0625 9.894531 -8.003906 11.0625 -7.140625 C 12.226562 -6.273438 13.660156 -5.84375 15.359375 -5.84375 C 17.816406 -5.84375 19.664062 -6.679688 20.90625 -8.359375 C 22.15625 -10.046875 22.78125 -12.078125 22.78125 -14.453125 C 22.78125 -16.804688 22.144531 -18.828125 20.875 -20.515625 C 19.601562 -22.210938 17.765625 -23.0625 15.359375 -23.0625 C 12.984375 -23.0625 11.144531 -22.210938 9.84375 -20.515625 C 8.550781 -18.828125 7.90625 -16.804688 7.90625 -14.453125 Z M 7.90625 -14.453125 "/></g></g></g><g fill="#231f20" fill-opacity="1"><g transform="translate(154.789913, 250.487693)"><g><path d="M 25.96875 0 L 24.609375 -17.109375 L 24.4375 -17.109375 L 18.515625 -0.171875 L 14.59375 -0.171875 L 8.6875 -17.109375 L 8.5 -17.109375 L 7.140625 0 L 0.5625 0 L 3.15625 -28.875 L 10.15625 -28.875 L 16.5625 -12.21875 L 22.953125 -28.875 L 29.953125 -28.875 L 32.546875 0 Z M 25.96875 0 "/></g></g></g><g fill="#231f20" fill-opacity="1"><g transform="translate(187.892438, 250.487693)"><g><path d="M 25.96875 0 L 24.609375 -17.109375 L 24.4375 -17.109375 L 18.515625 -0.171875 L 14.59375 -0.171875 L 8.6875 -17.109375 L 8.5 -17.109375 L 7.140625 0 L 0.5625 0 L 3.15625 -28.875 L 10.15625 -28.875 L 16.5625 -12.21875 L 22.953125 -28.875 L 29.953125 -28.875 L 32.546875 0 Z M 25.96875 0 "/></g></g></g><g fill="#231f20" fill-opacity="1"><g transform="translate(220.994963, 250.487693)"><g><path d="M 18.625 -28.875 L 18.625 -23.09375 L 8.6875 -23.09375 L 8.6875 -17.359375 L 18.203125 -17.359375 L 18.203125 -11.578125 L 8.6875 -11.578125 L 8.6875 -5.78125 L 18.625 -5.78125 L 18.625 0 L 2.09375 0 L 2.09375 -28.875 Z M 18.625 -28.875 "/></g></g></g><g fill="#231f20" fill-opacity="1"><g transform="translate(241.290383, 250.487693)"><g><path d="M 2.09375 -28.875 L 12.421875 -28.875 C 15.203125 -28.875 17.46875 -28.132812 19.21875 -26.65625 C 20.96875 -25.175781 21.84375 -23.054688 21.84375 -20.296875 C 21.84375 -18.171875 21.3125 -16.390625 20.25 -14.953125 C 19.1875 -13.523438 17.742188 -12.519531 15.921875 -11.9375 L 25.859375 0 L 17.5 0 L 8.6875 -11.40625 L 8.6875 0 L 2.09375 0 Z M 8.6875 -16.0625 L 9.453125 -16.0625 C 10.054688 -16.0625 10.566406 -16.070312 10.984375 -16.09375 C 11.410156 -16.125 11.890625 -16.207031 12.421875 -16.34375 C 12.960938 -16.488281 13.394531 -16.6875 13.71875 -16.9375 C 14.039062 -17.195312 14.316406 -17.570312 14.546875 -18.0625 C 14.785156 -18.550781 14.90625 -19.144531 14.90625 -19.84375 C 14.90625 -20.539062 14.785156 -21.132812 14.546875 -21.625 C 14.316406 -22.113281 14.039062 -22.488281 13.71875 -22.75 C 13.394531 -23.007812 12.960938 -23.207031 12.421875 -23.34375 C 11.890625 -23.488281 11.410156 -23.570312 10.984375 -23.59375 C 10.566406 -23.613281 10.054688 -23.625 9.453125 -23.625 L 8.6875 -23.625 Z M 8.6875 -16.0625 "/></g></g></g><g fill="#231f20" fill-opacity="1"><g transform="translate(266.344726, 250.487693)"><g><path d="M 17.46875 -5.953125 C 18.46875 -5.953125 19.441406 -6.101562 20.390625 -6.40625 C 21.335938 -6.707031 22.03125 -7 22.46875 -7.28125 L 23.140625 -7.734375 L 25.9375 -2.140625 C 25.84375 -2.066406 25.710938 -1.972656 25.546875 -1.859375 C 25.390625 -1.742188 25.007812 -1.523438 24.40625 -1.203125 C 23.8125 -0.890625 23.175781 -0.613281 22.5 -0.375 C 21.820312 -0.144531 20.9375 0.0625 19.84375 0.25 C 18.75 0.4375 17.617188 0.53125 16.453125 0.53125 C 13.765625 0.53125 11.21875 -0.128906 8.8125 -1.453125 C 6.414062 -2.773438 4.484375 -4.585938 3.015625 -6.890625 C 1.546875 -9.203125 0.8125 -11.703125 0.8125 -14.390625 C 0.8125 -16.421875 1.238281 -18.367188 2.09375 -20.234375 C 2.957031 -22.097656 4.109375 -23.691406 5.546875 -25.015625 C 6.984375 -26.347656 8.65625 -27.410156 10.5625 -28.203125 C 12.476562 -29.003906 14.441406 -29.40625 16.453125 -29.40625 C 18.316406 -29.40625 20.035156 -29.179688 21.609375 -28.734375 C 23.179688 -28.285156 24.296875 -27.84375 24.953125 -27.40625 L 25.9375 -26.734375 L 23.140625 -21.140625 C 22.972656 -21.273438 22.722656 -21.441406 22.390625 -21.640625 C 22.066406 -21.835938 21.414062 -22.097656 20.4375 -22.421875 C 19.457031 -22.753906 18.46875 -22.921875 17.46875 -22.921875 C 15.875 -22.921875 14.445312 -22.664062 13.1875 -22.15625 C 11.9375 -21.644531 10.941406 -20.96875 10.203125 -20.125 C 9.460938 -19.28125 8.898438 -18.375 8.515625 -17.40625 C 8.128906 -16.4375 7.9375 -15.453125 7.9375 -14.453125 C 7.9375 -12.265625 8.757812 -10.300781 10.40625 -8.5625 C 12.050781 -6.820312 14.40625 -5.953125 17.46875 -5.953125 Z M 17.46875 -5.953125 "/></g></g></g><g fill="#231f20" fill-opacity="1"><g transform="translate(292.693761, 250.487693)"><g><path d="M 18.625 -28.875 L 18.625 -23.09375 L 8.6875 -23.09375 L 8.6875 -17.359375 L 18.203125 -17.359375 L 18.203125 -11.578125 L 8.6875 -11.578125 L 8.6875 -5.78125 L 18.625 -5.78125 L 18.625 0 L 2.09375 0 L 2.09375 -28.875 Z M 18.625 -28.875 "/></g></g></g><g fill="#231f20" fill-opacity="1"><g transform="translate(138.723144, 273.787717)"><g/></g></g><g fill="#231f20" fill-opacity="1"><g transform="translate(144.359862, 273.787717)"><g><path d="M 2.109375 0 L 1.09375 0 C 0.9375 0 0.859375 -0.0703125 0.859375 -0.21875 L 0.859375 -4.421875 C 0.859375 -4.578125 0.9375 -4.65625 1.09375 -4.65625 L 2.234375 -4.65625 C 2.378906 -4.65625 2.453125 -4.578125 2.453125 -4.421875 L 2.453125 -4.046875 C 2.453125 -3.816406 2.585938 -3.515625 2.859375 -3.140625 C 3.140625 -2.765625 3.414062 -2.457031 3.6875 -2.21875 C 3.96875 -1.976562 4.335938 -1.769531 4.796875 -1.59375 C 5.253906 -1.414062 5.753906 -1.328125 6.296875 -1.328125 C 7.222656 -1.328125 7.945312 -1.519531 8.46875 -1.90625 C 8.988281 -2.289062 9.25 -2.828125 9.25 -3.515625 C 9.25 -3.910156 9.101562 -4.25 8.8125 -4.53125 C 8.519531 -4.8125 8.140625 -5.035156 7.671875 -5.203125 C 7.203125 -5.367188 6.679688 -5.523438 6.109375 -5.671875 C 5.535156 -5.816406 4.960938 -5.976562 4.390625 -6.15625 C 3.828125 -6.34375 3.3125 -6.566406 2.84375 -6.828125 C 2.375 -7.085938 1.992188 -7.445312 1.703125 -7.90625 C 1.410156 -8.375 1.265625 -8.921875 1.265625 -9.546875 C 1.265625 -10.546875 1.644531 -11.375 2.40625 -12.03125 C 3.164062 -12.695312 4.1875 -13.03125 5.46875 -13.03125 C 7.09375 -13.03125 8.28125 -12.554688 9.03125 -11.609375 L 9 -12.71875 C 9 -12.863281 9.078125 -12.9375 9.234375 -12.9375 L 10.234375 -12.9375 C 10.378906 -12.9375 10.453125 -12.863281 10.453125 -12.71875 L 10.453125 -8.796875 C 10.453125 -8.660156 10.378906 -8.59375 10.234375 -8.59375 L 9.109375 -8.59375 C 8.960938 -8.59375 8.890625 -8.660156 8.890625 -8.796875 L 8.890625 -9.3125 C 8.890625 -9.800781 8.613281 -10.296875 8.0625 -10.796875 C 7.507812 -11.304688 6.703125 -11.5625 5.640625 -11.5625 C 4.847656 -11.5625 4.207031 -11.367188 3.71875 -10.984375 C 3.226562 -10.609375 2.984375 -10.128906 2.984375 -9.546875 C 2.984375 -9.117188 3.132812 -8.753906 3.4375 -8.453125 C 3.738281 -8.160156 4.128906 -7.921875 4.609375 -7.734375 C 5.085938 -7.554688 5.613281 -7.390625 6.1875 -7.234375 C 6.769531 -7.085938 7.347656 -6.925781 7.921875 -6.75 C 8.492188 -6.570312 9.019531 -6.351562 9.5 -6.09375 C 9.976562 -5.84375 10.367188 -5.5 10.671875 -5.0625 C 10.972656 -4.625 11.125 -4.109375 11.125 -3.515625 C 11.125 -2.453125 10.742188 -1.578125 9.984375 -0.890625 C 9.234375 -0.210938 8.109375 0.125 6.609375 0.125 C 5.503906 0.125 4.59375 -0.09375 3.875 -0.53125 C 3.15625 -0.976562 2.628906 -1.460938 2.296875 -1.984375 L 2.328125 -0.21875 C 2.328125 -0.0703125 2.253906 0 2.109375 0 Z M 2.109375 0 "/></g></g></g><g fill="#231f20" fill-opacity="1"><g transform="translate(156.347822, 273.787717)"><g><path d="M 10.265625 0 L 8.546875 0 C 8.035156 0 7.78125 -0.25 7.78125 -0.75 L 7.78125 -5.484375 C 7.78125 -6.179688 7.609375 -6.722656 7.265625 -7.109375 C 6.929688 -7.492188 6.441406 -7.6875 5.796875 -7.6875 C 5.304688 -7.6875 4.929688 -7.609375 4.671875 -7.453125 C 4.410156 -7.304688 4.210938 -7.175781 4.078125 -7.0625 C 3.953125 -6.945312 3.847656 -6.835938 3.765625 -6.734375 C 3.617188 -6.535156 3.5 -6.335938 3.40625 -6.140625 L 3.40625 -1.203125 L 4.359375 -1.203125 C 4.515625 -1.203125 4.59375 -1.128906 4.59375 -0.984375 L 4.59375 -0.21875 C 4.59375 -0.0703125 4.515625 0 4.359375 0 L 0.921875 0 C 0.765625 0 0.6875 -0.0703125 0.6875 -0.21875 L 0.6875 -0.984375 C 0.6875 -1.128906 0.765625 -1.203125 0.921875 -1.203125 L 1.90625 -1.203125 L 1.90625 -11.71875 L 0.921875 -11.71875 C 0.765625 -11.71875 0.6875 -11.789062 0.6875 -11.9375 L 0.6875 -12.703125 C 0.6875 -12.847656 0.765625 -12.921875 0.921875 -12.921875 L 3.1875 -12.921875 C 3.332031 -12.921875 3.40625 -12.847656 3.40625 -12.703125 L 3.40625 -8.6875 C 3.40625 -8.289062 3.378906 -7.925781 3.328125 -7.59375 L 3.359375 -7.59375 C 3.953125 -8.519531 4.890625 -8.984375 6.171875 -8.984375 C 7.128906 -8.984375 7.878906 -8.703125 8.421875 -8.140625 C 8.960938 -7.578125 9.238281 -6.8125 9.25 -5.84375 L 9.25 -1.203125 L 10.265625 -1.203125 C 10.421875 -1.203125 10.5 -1.128906 10.5 -0.984375 L 10.5 -0.21875 C 10.5 -0.0703125 10.421875 0 10.265625 0 Z M 10.265625 0 "/></g></g></g><g fill="#231f20" fill-opacity="1"><g transform="translate(167.525792, 273.787717)"><g><path d="M 8.375 -1.125 C 7.539062 -0.289062 6.46875 0.125 5.15625 0.125 C 3.851562 0.125 2.78125 -0.289062 1.9375 -1.125 C 1.101562 -1.957031 0.6875 -3.066406 0.6875 -4.453125 C 0.6875 -5.835938 1.109375 -6.9375 1.953125 -7.75 C 2.804688 -8.570312 3.878906 -8.984375 5.171875 -8.984375 C 6.460938 -8.984375 7.53125 -8.570312 8.375 -7.75 C 9.21875 -6.925781 9.640625 -5.828125 9.640625 -4.453125 C 9.640625 -3.078125 9.21875 -1.96875 8.375 -1.125 Z M 2.203125 -4.4375 C 2.203125 -3.457031 2.488281 -2.660156 3.0625 -2.046875 C 3.632812 -1.441406 4.335938 -1.140625 5.171875 -1.140625 C 6.003906 -1.140625 6.707031 -1.441406 7.28125 -2.046875 C 7.863281 -2.660156 8.15625 -3.457031 8.15625 -4.4375 C 8.15625 -5.425781 7.863281 -6.21875 7.28125 -6.8125 C 6.695312 -7.414062 5.992188 -7.71875 5.171875 -7.71875 C 4.359375 -7.71875 3.660156 -7.414062 3.078125 -6.8125 C 2.492188 -6.21875 2.203125 -5.425781 2.203125 -4.4375 Z M 2.203125 -4.4375 "/></g></g></g><g fill="#231f20" fill-opacity="1"><g transform="translate(177.87576, 273.787717)"><g><path d="M 4.53125 4.046875 L 0.921875 4.046875 C 0.765625 4.046875 0.6875 3.972656 0.6875 3.828125 L 0.6875 3.0625 C 0.6875 2.914062 0.765625 2.84375 0.921875 2.84375 L 1.921875 2.84375 L 1.921875 -7.65625 L 0.953125 -7.65625 C 0.796875 -7.65625 0.71875 -7.722656 0.71875 -7.859375 L 0.71875 -8.640625 C 0.71875 -8.785156 0.796875 -8.859375 0.953125 -8.859375 L 3.0625 -8.859375 C 3.21875 -8.859375 3.296875 -8.785156 3.296875 -8.640625 L 3.28125 -7.21875 L 3.296875 -7.21875 C 3.523438 -7.707031 3.894531 -8.125 4.40625 -8.46875 C 4.914062 -8.8125 5.539062 -8.984375 6.28125 -8.984375 C 7.488281 -8.984375 8.460938 -8.570312 9.203125 -7.75 C 9.953125 -6.925781 10.328125 -5.832031 10.328125 -4.46875 C 10.328125 -3.113281 9.960938 -2.007812 9.234375 -1.15625 C 8.503906 -0.300781 7.523438 0.125 6.296875 0.125 C 5.554688 0.125 4.9375 -0.046875 4.4375 -0.390625 C 3.9375 -0.734375 3.578125 -1.148438 3.359375 -1.640625 L 3.3125 -1.640625 C 3.34375 -1.253906 3.359375 -0.976562 3.359375 -0.8125 L 3.359375 2.84375 L 4.53125 2.84375 C 4.6875 2.84375 4.765625 2.914062 4.765625 3.0625 L 4.765625 3.828125 C 4.765625 3.972656 4.6875 4.046875 4.53125 4.046875 Z M 3.328125 -4.390625 C 3.328125 -3.347656 3.597656 -2.546875 4.140625 -1.984375 C 4.691406 -1.421875 5.351562 -1.140625 6.125 -1.140625 C 6.90625 -1.140625 7.554688 -1.441406 8.078125 -2.046875 C 8.597656 -2.648438 8.859375 -3.445312 8.859375 -4.4375 C 8.859375 -5.425781 8.597656 -6.21875 8.078125 -6.8125 C 7.554688 -7.414062 6.90625 -7.71875 6.125 -7.71875 C 5.34375 -7.71875 4.679688 -7.421875 4.140625 -6.828125 C 3.597656 -6.242188 3.328125 -5.429688 3.328125 -4.390625 Z M 3.328125 -4.390625 "/></g></g></g><g fill="#231f20" fill-opacity="1"><g transform="translate(188.909729, 273.787717)"><g/></g></g><g fill="#231f20" fill-opacity="1"><g transform="translate(194.543712, 273.787717)"><g><path d="M 13.6875 0 L 9.34375 0 C 9.195312 0 9.125 -0.0703125 9.125 -0.21875 L 9.125 -1.140625 C 9.125 -1.273438 9.195312 -1.34375 9.34375 -1.34375 L 10.734375 -1.34375 L 10.734375 -5.765625 L 4.03125 -5.765625 L 4.03125 -1.34375 L 5.421875 -1.34375 C 5.578125 -1.34375 5.65625 -1.273438 5.65625 -1.140625 L 5.65625 -0.21875 C 5.65625 -0.0703125 5.578125 0 5.421875 0 L 1.09375 0 C 0.9375 0 0.859375 -0.0703125 0.859375 -0.21875 L 0.859375 -1.140625 C 0.859375 -1.273438 0.9375 -1.34375 1.09375 -1.34375 L 2.46875 -1.34375 L 2.46875 -11.578125 L 1.09375 -11.578125 C 0.9375 -11.578125 0.859375 -11.648438 0.859375 -11.796875 L 0.859375 -12.703125 C 0.859375 -12.847656 0.9375 -12.921875 1.09375 -12.921875 L 5.421875 -12.921875 C 5.578125 -12.921875 5.65625 -12.847656 5.65625 -12.703125 L 5.65625 -11.796875 C 5.65625 -11.648438 5.578125 -11.578125 5.421875 -11.578125 L 4.03125 -11.578125 L 4.03125 -7.078125 L 10.734375 -7.078125 L 10.734375 -11.578125 L 9.34375 -11.578125 C 9.195312 -11.578125 9.125 -11.648438 9.125 -11.796875 L 9.125 -12.703125 C 9.125 -12.847656 9.195312 -12.921875 9.34375 -12.921875 L 13.6875 -12.921875 C 13.820312 -12.921875 13.890625 -12.847656 13.890625 -12.703125 L 13.890625 -11.796875 C 13.890625 -11.648438 13.820312 -11.578125 13.6875 -11.578125 L 12.296875 -11.578125 L 12.296875 -1.34375 L 13.6875 -1.34375 C 13.820312 -1.34375 13.890625 -1.273438 13.890625 -1.140625 L 13.890625 -0.21875 C 13.890625 -0.0703125 13.820312 0 13.6875 0 Z M 13.6875 0 "/></g></g></g><g fill="#231f20" fill-opacity="1"><g transform="translate(209.303671, 273.787717)"><g><path d="M 8.6875 -4.25 L 2.21875 -4.25 C 2.257812 -3.25 2.570312 -2.476562 3.15625 -1.9375 C 3.738281 -1.40625 4.394531 -1.140625 5.125 -1.140625 C 5.863281 -1.140625 6.492188 -1.289062 7.015625 -1.59375 C 7.535156 -1.90625 7.882812 -2.210938 8.0625 -2.515625 C 8.15625 -2.640625 8.265625 -2.660156 8.390625 -2.578125 L 8.875 -2.09375 C 8.945312 -2.019531 8.984375 -1.953125 8.984375 -1.890625 C 8.984375 -1.835938 8.953125 -1.769531 8.890625 -1.6875 C 8.835938 -1.601562 8.726562 -1.472656 8.5625 -1.296875 C 8.394531 -1.117188 8.15625 -0.914062 7.84375 -0.6875 C 7.539062 -0.457031 7.144531 -0.265625 6.65625 -0.109375 C 6.175781 0.046875 5.660156 0.125 5.109375 0.125 C 3.847656 0.125 2.796875 -0.285156 1.953125 -1.109375 C 1.109375 -1.941406 0.6875 -3.054688 0.6875 -4.453125 C 0.6875 -5.847656 1.101562 -6.953125 1.9375 -7.765625 C 2.78125 -8.578125 3.8125 -8.984375 5.03125 -8.984375 C 6.25 -8.984375 7.207031 -8.585938 7.90625 -7.796875 C 8.601562 -7.015625 8.953125 -5.957031 8.953125 -4.625 C 8.953125 -4.570312 8.953125 -4.523438 8.953125 -4.484375 C 8.953125 -4.328125 8.863281 -4.25 8.6875 -4.25 Z M 7.453125 -5.34375 C 7.410156 -6.09375 7.175781 -6.6875 6.75 -7.125 C 6.320312 -7.570312 5.742188 -7.796875 5.015625 -7.796875 C 4.296875 -7.796875 3.675781 -7.585938 3.15625 -7.171875 C 2.644531 -6.765625 2.34375 -6.15625 2.25 -5.34375 Z M 7.453125 -5.34375 "/></g></g></g><g fill="#231f20" fill-opacity="1"><g transform="translate(218.987638, 273.787717)"><g><path d="M 4.359375 0 L 0.921875 0 C 0.765625 0 0.6875 -0.0703125 0.6875 -0.21875 L 0.6875 -0.984375 C 0.6875 -1.128906 0.765625 -1.203125 0.921875 -1.203125 L 1.90625 -1.203125 L 1.90625 -7.65625 L 0.921875 -7.65625 C 0.765625 -7.65625 0.6875 -7.722656 0.6875 -7.859375 L 0.6875 -8.640625 C 0.6875 -8.785156 0.765625 -8.859375 0.921875 -8.859375 L 3.03125 -8.859375 C 3.1875 -8.859375 3.265625 -8.785156 3.265625 -8.640625 L 3.265625 -6.390625 L 3.3125 -6.390625 C 3.34375 -6.578125 3.46875 -6.835938 3.6875 -7.171875 C 3.90625 -7.515625 4.140625 -7.796875 4.390625 -8.015625 C 4.648438 -8.242188 5.023438 -8.445312 5.515625 -8.625 C 6.003906 -8.800781 6.550781 -8.890625 7.15625 -8.890625 C 7.3125 -8.890625 7.390625 -8.8125 7.390625 -8.65625 L 7.390625 -7.703125 C 7.390625 -7.546875 7.3125 -7.46875 7.15625 -7.46875 L 6.78125 -7.46875 C 5.75 -7.46875 4.925781 -7.132812 4.3125 -6.46875 C 3.707031 -5.8125 3.40625 -5.066406 3.40625 -4.234375 L 3.40625 -1.203125 L 4.359375 -1.203125 C 4.515625 -1.203125 4.59375 -1.128906 4.59375 -0.984375 L 4.59375 -0.21875 C 4.59375 -0.0703125 4.515625 0 4.359375 0 Z M 4.359375 0 "/></g></g></g><g fill="#231f20" fill-opacity="1"><g transform="translate(226.565618, 273.787717)"><g><path d="M 8.6875 -4.25 L 2.21875 -4.25 C 2.257812 -3.25 2.570312 -2.476562 3.15625 -1.9375 C 3.738281 -1.40625 4.394531 -1.140625 5.125 -1.140625 C 5.863281 -1.140625 6.492188 -1.289062 7.015625 -1.59375 C 7.535156 -1.90625 7.882812 -2.210938 8.0625 -2.515625 C 8.15625 -2.640625 8.265625 -2.660156 8.390625 -2.578125 L 8.875 -2.09375 C 8.945312 -2.019531 8.984375 -1.953125 8.984375 -1.890625 C 8.984375 -1.835938 8.953125 -1.769531 8.890625 -1.6875 C 8.835938 -1.601562 8.726562 -1.472656 8.5625 -1.296875 C 8.394531 -1.117188 8.15625 -0.914062 7.84375 -0.6875 C 7.539062 -0.457031 7.144531 -0.265625 6.65625 -0.109375 C 6.175781 0.046875 5.660156 0.125 5.109375 0.125 C 3.847656 0.125 2.796875 -0.285156 1.953125 -1.109375 C 1.109375 -1.941406 0.6875 -3.054688 0.6875 -4.453125 C 0.6875 -5.847656 1.101562 -6.953125 1.9375 -7.765625 C 2.78125 -8.578125 3.8125 -8.984375 5.03125 -8.984375 C 6.25 -8.984375 7.207031 -8.585938 7.90625 -7.796875 C 8.601562 -7.015625 8.953125 -5.957031 8.953125 -4.625 C 8.953125 -4.570312 8.953125 -4.523438 8.953125 -4.484375 C 8.953125 -4.328125 8.863281 -4.25 8.6875 -4.25 Z M 7.453125 -5.34375 C 7.410156 -6.09375 7.175781 -6.6875 6.75 -7.125 C 6.320312 -7.570312 5.742188 -7.796875 5.015625 -7.796875 C 4.296875 -7.796875 3.675781 -7.585938 3.15625 -7.171875 C 2.644531 -6.765625 2.34375 -6.15625 2.25 -5.34375 Z M 7.453125 -5.34375 "/></g></g></g></svg>